<svg width="348" height="348" viewBox="0 0 348 348" xmlns="http://www.w3.org/2000/svg"><rect width="348" height="348" fill="#fff"/><path d="M48 48h12v12h-12zM60 48h12v12h-12zM72 48h12v12h-12zM84 48h12v12h-12zM96 48h12v12h-12zM108 48h12v12h-12zM120 48h12v12h-12zM156 48h12v12h-12zM180 48h12v12h-12zM192 48h12v12h-12zM216 48h12v12h-12zM228 48h12v12h-12zM240 48h12v12h-12zM252 48h12v12h-12zM264 48h12v12h-12zM276 48h12v12h-12zM288 48h12v12h-12zM48 60h12v12h-12zM120 60h12v12h-12zM156 60h12v12h-12zM168 60h12v12h-12zM180 60h12v12h-12zM216 60h12v12h-12zM288 60h12v12h-12zM48 72h12v12h-12zM72 72h12v12h-12zM84 72h12v12h-12zM96 72h12v12h-12zM120 72h12v12h-12zM144 72h12v12h-12zM156 72h12v12h-12zM180 72h12v12h-12zM192 72h12v12h-12zM216 72h12v12h-12zM240 72h12v12h-12zM252 72h12v12h-12zM264 72h12v12h-12zM288 72h12v12h-12zM48 84h12v12h-12zM72 84h12v12h-12zM84 84h12v12h-12zM96 84h12v12h-12zM120 84h12v12h-12zM156 84h12v12h-12zM180 84h12v12h-12zM216 84h12v12h-12zM240 84h12v12h-12zM252 84h12v12h-12zM264 84h12v12h-12zM288 84h12v12h-12zM48 96h12v12h-12zM72 96h12v12h-12zM84 96h12v12h-12zM96 96h12v12h-12zM120 96h12v12h-12zM168 96h12v12h-12zM192 96h12v12h-12zM216 96h12v12h-12zM240 96h12v12h-12zM252 96h12v12h-12zM264 96h12v12h-12zM288 96h12v12h-12zM48 108h12v12h-12zM120 108h12v12h-12zM192 108h12v12h-12zM216 108h12v12h-12zM288 108h12v12h-12zM48 120h12v12h-12zM60 120h12v12h-12zM72 120h12v12h-12zM84 120h12v12h-12zM96 120h12v12h-12zM108 120h12v12h-12zM120 120h12v12h-12zM144 120h12v12h-12zM168 120h12v12h-12zM192 120h12v12h-12zM216 120h12v12h-12zM228 120h12v12h-12zM240 120h12v12h-12zM252 120h12v12h-12zM264 120h12v12h-12zM276 120h12v12h-12zM288 120h12v12h-12zM144 132h12v12h-12zM156 132h12v12h-12zM180 132h12v12h-12zM192 132h12v12h-12zM48 144h12v12h-12zM60 144h12v12h-12zM72 144h12v12h-12zM96 144h12v12h-12zM108 144h12v12h-12zM120 144h12v12h-12zM132 144h12v12h-12zM144 144h12v12h-12zM156 144h12v12h-12zM168 144h12v12h-12zM180 144h12v12h-12zM204 144h12v12h-12zM216 144h12v12h-12zM264 144h12v12h-12zM48 156h12v12h-12zM60 156h12v12h-12zM72 156h12v12h-12zM108 156h12v12h-12zM168 156h12v12h-12zM216 156h12v12h-12zM228 156h12v12h-12zM276 156h12v12h-12zM60 168h12v12h-12zM72 168h12v12h-12zM84 168h12v12h-12zM108 168h12v12h-12zM120 168h12v12h-12zM156 168h12v12h-12zM192 168h12v12h-12zM240 168h12v12h-12zM252 168h12v12h-12zM264 168h12v12h-12zM276 168h12v12h-12zM288 168h12v12h-12zM48 180h12v12h-12zM60 180h12v12h-12zM72 180h12v12h-12zM84 180h12v12h-12zM96 180h12v12h-12zM132 180h12v12h-12zM144 180h12v12h-12zM216 180h12v12h-12zM276 180h12v12h-12zM60 192h12v12h-12zM72 192h12v12h-12zM108 192h12v12h-12zM120 192h12v12h-12zM168 192h12v12h-12zM192 192h12v12h-12zM216 192h12v12h-12zM228 192h12v12h-12zM240 192h12v12h-12zM252 192h12v12h-12zM264 192h12v12h-12zM276 192h12v12h-12zM288 192h12v12h-12zM144 204h12v12h-12zM168 204h12v12h-12zM180 204h12v12h-12zM204 204h12v12h-12zM240 204h12v12h-12zM276 204h12v12h-12zM48 216h12v12h-12zM60 216h12v12h-12zM72 216h12v12h-12zM84 216h12v12h-12zM96 216h12v12h-12zM108 216h12v12h-12zM120 216h12v12h-12zM144 216h12v12h-12zM156 216h12v12h-12zM180 216h12v12h-12zM204 216h12v12h-12zM216 216h12v12h-12zM240 216h12v12h-12zM276 216h12v12h-12zM288 216h12v12h-12zM48 228h12v12h-12zM120 228h12v12h-12zM144 228h12v12h-12zM156 228h12v12h-12zM168 228h12v12h-12zM180 228h12v12h-12zM192 228h12v12h-12zM204 228h12v12h-12zM228 228h12v12h-12zM252 228h12v12h-12zM288 228h12v12h-12zM48 240h12v12h-12zM72 240h12v12h-12zM84 240h12v12h-12zM96 240h12v12h-12zM120 240h12v12h-12zM144 240h12v12h-12zM156 240h12v12h-12zM180 240h12v12h-12zM204 240h12v12h-12zM216 240h12v12h-12zM240 240h12v12h-12zM276 240h12v12h-12zM288 240h12v12h-12zM48 252h12v12h-12zM72 252h12v12h-12zM84 252h12v12h-12zM96 252h12v12h-12zM120 252h12v12h-12zM168 252h12v12h-12zM216 252h12v12h-12zM240 252h12v12h-12zM264 252h12v12h-12zM276 252h12v12h-12zM48 264h12v12h-12zM72 264h12v12h-12zM84 264h12v12h-12zM96 264h12v12h-12zM120 264h12v12h-12zM144 264h12v12h-12zM168 264h12v12h-12zM192 264h12v12h-12zM240 264h12v12h-12zM252 264h12v12h-12zM264 264h12v12h-12zM288 264h12v12h-12zM48 276h12v12h-12zM120 276h12v12h-12zM144 276h12v12h-12zM168 276h12v12h-12zM216 276h12v12h-12zM228 276h12v12h-12zM252 276h12v12h-12zM276 276h12v12h-12zM48 288h12v12h-12zM60 288h12v12h-12zM72 288h12v12h-12zM84 288h12v12h-12zM96 288h12v12h-12zM108 288h12v12h-12zM120 288h12v12h-12zM144 288h12v12h-12zM168 288h12v12h-12zM192 288h12v12h-12zM216 288h12v12h-12zM240 288h12v12h-12zM252 288h12v12h-12zM276 288h12v12h-12zM288 288h12v12h-12z" fill="#11160f"/></svg>