<svg width="91" height="34" viewBox="0 0 91 34" fill="none" xmlns="http://www.w3.org/2000/svg">
<g filter="url(#filter0_d_1_26)">
<path d="M15.0951 25C13.339 25 11.6965 24.6269 10.1676 23.8808C8.65942 23.114 7.43012 22.0363 6.47974 20.6477C5.55002 19.2383 5.0645 17.6321 5.02318 15.829H11.0974C11.18 16.5751 11.4176 17.2383 11.8101 17.8187C12.2233 18.3782 12.7502 18.8238 13.3907 19.1554C14.0311 19.4663 14.7439 19.6218 15.529 19.6218C16.0042 19.6218 16.4484 19.5389 16.8616 19.3731C17.2955 19.2073 17.6467 18.9793 17.9153 18.6891C18.1839 18.399 18.3182 18.0777 18.3182 17.7254C18.3182 17.1658 18.1322 16.7306 17.7603 16.4197C17.3885 16.0881 16.9133 15.8497 16.3348 15.7047C15.7563 15.5596 14.9505 15.4041 13.9175 15.2383C12.244 14.9689 10.8701 14.6477 9.79574 14.2746C8.74206 13.9016 7.82267 13.228 7.03757 12.2539C6.27314 11.2798 5.89092 9.88083 5.89092 8.05699C5.89092 6.70984 6.28347 5.49741 7.06856 4.41969C7.85366 3.34197 8.93833 2.50259 10.3226 1.90156C11.7275 1.30052 13.2977 1 15.0332 1C16.748 1 18.3182 1.36269 19.7437 2.08808C21.1693 2.79275 22.3263 3.75648 23.2147 4.97927C24.1238 6.18135 24.6506 7.50777 24.7952 8.95855H18.5041C18.4008 8.44041 18.1632 7.97409 17.7913 7.55959C17.4401 7.14508 16.9649 6.81347 16.3658 6.56477C15.7873 6.31606 15.1365 6.19171 14.4134 6.19171C13.6696 6.19171 13.0601 6.33679 12.5849 6.62694C12.1304 6.89637 11.9031 7.25907 11.9031 7.71503C11.9031 8.12953 12.0684 8.46114 12.399 8.70985C12.7295 8.95855 13.1531 9.14508 13.6696 9.26943C14.1861 9.39378 14.8989 9.51814 15.8079 9.64249C17.5227 9.91192 18.9483 10.2435 20.0846 10.6373C21.221 11.0104 22.2127 11.7254 23.0597 12.7824C23.9068 13.8187 24.3304 15.3212 24.3304 17.2902C24.3304 18.8031 23.9378 20.1503 23.1527 21.3316C22.3883 22.4922 21.3036 23.3938 19.8987 24.0363C18.5145 24.6788 16.9133 25 15.0951 25Z" fill="black"/>
<path d="M34.3358 24.6269C32.7242 24.6269 31.2987 24.2642 30.059 23.5389C28.8401 22.7927 27.8897 21.7565 27.2079 20.4301C26.5261 19.1036 26.1852 17.5803 26.1852 15.8601V1.37306H32.0734V15.8601C32.0734 16.5648 32.2181 17.1865 32.5073 17.7254C32.8172 18.2642 33.2408 18.6788 33.7779 18.9689C34.3151 19.2591 34.9142 19.4041 35.5754 19.4041H36.0712C37.1043 19.4041 37.9513 19.0829 38.6125 18.4404C39.2736 17.7979 39.6042 16.9378 39.6042 15.8601V1.37306H45.4924V15.8601C45.4924 17.5803 45.1515 19.1036 44.4697 20.4301C43.7879 21.7565 42.8272 22.7927 41.5876 23.5389C40.3479 24.2642 38.9224 24.6269 37.3109 24.6269H34.3358Z" fill="black"/>
<path d="M62.8285 12.8135C63.593 13.1658 64.2438 13.601 64.7809 14.1192C65.3181 14.6373 65.7313 15.2176 66.0206 15.8601C66.3098 16.4819 66.4544 17.1554 66.4544 17.8808V24.6269H60.5662V19.4041C60.5662 18.513 60.2976 17.7668 59.7605 17.1658C59.2233 16.544 58.5312 16.2332 57.6841 16.2332H54.0272V24.6269H48.139V1.37306H57.5601C59.3782 1.37306 60.9484 1.67358 62.2707 2.27461C63.6136 2.87565 64.6467 3.73575 65.3698 4.85492C66.0929 5.97409 66.4544 7.29016 66.4544 8.80311C66.4544 9.6943 66.3201 10.5233 66.0516 11.2902C65.783 12.057 65.4008 12.7409 64.9049 13.342C64.4091 13.943 63.8099 14.4508 63.1074 14.8653L62.8285 12.8135ZM57.3742 11.0104C58.0146 11.0104 58.5621 10.9275 59.0167 10.7617C59.4712 10.5959 59.8121 10.3472 60.0394 10.0155C60.2873 9.68394 60.4113 9.27979 60.4113 8.80311C60.4113 8.09845 60.1427 7.55959 59.6055 7.18653C59.089 6.79275 58.3452 6.59585 57.3742 6.59585H54.0272V11.0104H57.3742Z" fill="black"/>
<path d="M85.0232 6.59585H74.8272V10.2021H84.4034V15.4249H74.8272V24.6269H68.939V1.37306H85.0232V6.59585Z" fill="black"/>
<path d="M15.0329 0.5C16.8184 0.5 18.4653 0.877955 19.9646 1.63965C21.4558 2.37674 22.6753 3.38979 23.613 4.67773L23.7898 4.91797C24.6452 6.12757 25.1483 7.46042 25.2927 8.90918L25.3474 9.45898H18.0935L18.0134 9.05664C17.9286 8.6312 17.7341 8.24511 17.4187 7.89355L17.4148 7.88867L17.4099 7.88281C17.1191 7.53967 16.7143 7.25047 16.1745 7.02637L16.1687 7.02441C15.6613 6.80627 15.0788 6.69146 14.4138 6.69141C13.732 6.69141 13.22 6.825 12.8454 7.05371L12.8396 7.05664C12.5084 7.25297 12.4031 7.4665 12.4031 7.71484C12.4031 7.97261 12.4952 8.15652 12.6999 8.31055C12.9627 8.50813 13.3189 8.67054 13.7868 8.7832C14.1564 8.87217 14.6391 8.96282 15.238 9.05469L15.8757 9.14746L15.8855 9.14844C17.6138 9.41999 19.0678 9.75669 20.24 10.1621C21.4789 10.5689 22.5482 11.3455 23.447 12.4658L23.6189 12.6885C24.4476 13.8305 24.8308 15.3854 24.8308 17.29C24.8308 18.8946 24.4124 20.3395 23.5691 21.6084C22.7478 22.8546 21.587 23.8126 20.1081 24.4893L20.1091 24.4902C18.6476 25.1685 16.9723 25.5 15.0954 25.5C13.2658 25.5 11.5474 25.1106 9.94798 24.3301L9.94115 24.3262C8.35868 23.5216 7.0651 22.3878 6.06712 20.9297L6.06224 20.9229C5.07733 19.4298 4.56655 17.731 4.52318 15.8408L4.51146 15.3291H11.5447L11.5945 15.7744C11.6684 16.4416 11.8783 17.0232 12.2185 17.5293C12.5837 18.0214 13.0488 18.4147 13.6208 18.7109H13.6199C14.1828 18.9821 14.8163 19.1221 15.529 19.1221C15.9448 19.1221 16.3254 19.0497 16.6755 18.9092L16.6833 18.9062C17.0579 18.7631 17.3406 18.5743 17.5486 18.3496C17.7428 18.1398 17.8181 17.9362 17.8181 17.7256C17.8181 17.2886 17.6792 17.0044 17.4392 16.8037L17.4333 16.7979L17.3103 16.6953C17.0256 16.4745 16.6645 16.3026 16.2136 16.1895C15.6558 16.0496 14.8661 15.8973 13.8386 15.7324H13.8376C12.148 15.4604 10.7432 15.1331 9.63158 14.7471L9.62865 14.7461C8.4776 14.3385 7.48423 13.6047 6.64818 12.5674L6.64427 12.5625C5.78477 11.4673 5.39134 9.94144 5.39134 8.05664C5.39141 6.605 5.81676 5.28909 6.66478 4.125C7.50897 2.96631 8.66891 2.07505 10.1238 1.44336L10.1257 1.44141C11.6006 0.810429 13.2391 0.500026 15.0329 0.5ZM32.573 0.873047V15.8604C32.573 16.4911 32.7014 17.0266 32.9431 17.4805C33.2073 17.9382 33.5629 18.2849 34.0154 18.5293C34.4735 18.7767 34.9899 18.9042 35.5749 18.9043H36.071C36.991 18.9043 37.7081 18.6226 38.2644 18.082C38.8121 17.5497 39.1042 16.8276 39.1042 15.8604V0.873047H45.9919V15.8604C45.9919 17.6475 45.6379 19.2511 44.9148 20.6582C44.1919 22.0646 43.1672 23.1712 41.8454 23.9668L41.8406 23.9707C40.5154 24.7461 39.0003 25.1269 37.3113 25.127H34.3357C32.6465 25.1269 31.1316 24.7462 29.8064 23.9707L29.7976 23.9658L30.0593 23.5391L29.7976 23.9648C28.4972 23.1687 27.4851 22.0623 26.7634 20.6582C26.0402 19.2511 25.6853 17.6476 25.6853 15.8604V0.873047H32.573ZM57.5603 0.873047C59.4313 0.873065 61.0744 1.18206 62.4753 1.81836L62.738 1.94043C64.0345 2.57024 65.0576 3.45074 65.7898 4.58398C66.5718 5.79443 66.9548 7.20722 66.9548 8.80273C66.9548 9.74469 66.812 10.6303 66.5232 11.4551C66.236 12.2751 65.8257 13.0117 65.2908 13.6602C65.2512 13.708 65.2094 13.754 65.1687 13.8008C65.7273 14.3488 66.1643 14.9647 66.4734 15.6494H66.4743C66.796 16.3409 66.9548 17.087 66.9548 17.8809V25.127H60.0661V19.4043C60.0661 18.622 59.8338 17.9985 59.3874 17.499L59.3816 17.4932V17.4922C58.9428 16.9846 58.3909 16.7335 57.6843 16.7334H54.5271V25.127H47.6394V0.873047H57.5603ZM85.5232 0.873047V7.0957H75.3269V9.70215H84.9031V15.9248H75.3269V25.127H68.4392V0.873047H85.5232ZM54.5271 10.5107H57.3738C57.9736 10.5107 58.4604 10.4325 58.8454 10.292C59.2224 10.1545 59.4695 9.96177 59.6267 9.73242L59.6326 9.72461L59.6394 9.71582C59.813 9.48341 59.9109 9.18825 59.9109 8.80273C59.9108 8.24717 59.7107 7.869 59.3201 7.59766L59.3025 7.58398C58.9068 7.28231 58.287 7.0957 57.3738 7.0957H54.5271V10.5107Z" stroke="black"/>
</g>
<defs>
<filter id="filter0_d_1_26" x="0" y="0" width="90.0232" height="34" filterUnits="userSpaceOnUse" color-interpolation-filters="sRGB">
<feFlood flood-opacity="0" result="BackgroundImageFix"/>
<feColorMatrix in="SourceAlpha" type="matrix" values="0 0 0 0 0 0 0 0 0 0 0 0 0 0 0 0 0 0 127 0" result="hardAlpha"/>
<feOffset dy="4"/>
<feGaussianBlur stdDeviation="2"/>
<feComposite in2="hardAlpha" operator="out"/>
<feColorMatrix type="matrix" values="0 0 0 0 0 0 0 0 0 0 0 0 0 0 0 0 0 0 0.25 0"/>
<feBlend mode="normal" in2="BackgroundImageFix" result="effect1_dropShadow_1_26"/>
<feBlend mode="normal" in="SourceGraphic" in2="effect1_dropShadow_1_26" result="shape"/>
</filter>
</defs>
</svg>
